<?xml version="1.0" encoding="utf-8"?>
<!-- Generator: Adobe Illustrator 22.1.0, SVG Export Plug-In . SVG Version: 6.00 Build 0)  -->
<svg version="1.1" xmlns="http://www.w3.org/2000/svg" xmlns:xlink="http://www.w3.org/1999/xlink" x="0px" y="0px"
	 viewBox="0 0 1024 500" style="enable-background:new 0 0 1024 500;" xml:space="preserve">
<style type="text/css">
	.st0{fill:#FFF;}
	.st1{display:none;}
	.st2{display:inline;fill:none;stroke:#000000;stroke-miterlimit:10;}
</style>
<g id="Layer_1">
	<g transform="translate(0.000000,500.000000) scale(0.100000,-0.100000)">
		<g>
			<g>
				<path class="st0" d="M7611.6,1860.6c118,122,242,250,275,284c33,34,177,182,320,329c143,147,262,271,263,277c2,5,10,9,18,9
					s14,4,14,10c0,5,69,80,153,165c83,85,187,191,230,235l75.4,80V4680l-2927-2c-1611-1-2971-5-3023-9c-105-8-206-25-232-39
					c-10-6-27-10-38-10s-20-4-20-10c0-5-9-10-20-10c-1.9,0-3.6-0.1-5.3-0.3c-4.8-2.5-9.6-4.9-14.6-7.2c-0.1-0.1-0.1-0.1-0.1-0.2
					c1-11.1-51-31.3-67.8-27.5c-3-1.2-6.1-2.4-9.1-3.7c1.3-10.5-81.5-71.1-98-71.1c-7,0-73-59-140-125c-123-122-226-263-291-401
					c-21-43-41-81-44-84c-4-3-11-24-15-47c-4-24-11-45-16-49c-5-3-9-14-9-25c0-11-3-18-7-16c-5,3-9-9-10-26c0-18-8-66-17-107
					c-45-203-47-439-6-680c6-36,14-72,19-80c5-9,12-35,16-58c4-23,10-44,15-47c5-3,11-23,15-45c4-22,10-40,13-40c4,0,16-21,26-48
					c50-121,192-323,301-425c96-91,136-126,185-162c30-22,57-43,58-47c2-5,10-8,18-8c8,0,14-4,14-10c0-5,7-10,15-10c8,0,15-4,15-10
					c0-5,4-10,10-10c11,0,144-91,148-102c2-4,10-8,18-8c8.5,0,14.8-4.5,13.9-11.2c0.2-0.4,0.3-0.7,0.5-1.1
					c11.9-6.5,23.6-13.4,34.8-21.2c1.9-1.3,3.6-2.7,5.3-4.2c50.1-30.9,143.7-93.3,164.5-110.3c6-4,18-11,28-15c16-6,23-46,17-102
					c-5-45,20-44-1012-45h-978V110h1293c1283,1,1363,3,1393,33c4,4,18,7,31,7c13,0,23,5,23,10c0,6,9,10,20,10s20,3,20,8
					c0,7,81,46,89,42c2-1,7,2,10,7c3,5,33,28,66,50c34,23,67,48,74,57c7,9,17,16,22,16c4,0,30,23,56,52c26,28,62,66,78,84
					c17,18,46,55,65,83c19,27,38,50,43,51c4,0,7,6,7,13c0,8,9,24,20,37c11,13,39,62,63,109c23,47,45,88,50,89c4,2,7,13,7,24
					c0,11,6,34,14,51c28,63,55,169,79,312c15,90,15,432,0,510c-7,33-17,85-23,115c-6,30-14,64-19,75c-4,11-19,54-32,95
					c-13,41-26,77-29,80c-11,11-40,73-40,86c0,8-4,14-9,14s-14,12-20,28c-46,113-245,344-397,458c-50,38-73,56-89,72
					c-8,6-18,12-24,12c-6,0-11,4-11,9s-8,11-17,15c-20,6-51,25-70,43c-8,7-27,20-43,30c-11.4,6-20.7,13.3-25.8,18.7
					c-0.8,0.5-1.6,0.9-2.4,1.5c-8.2,2.4-15.7,6.6-22.2,12.5c-0.6,0.5-1,1.2-1.5,1.8c-2.1,0.6-4,1.4-5.3,2.6
					c-2.5,1.4-4.8,2.9-6.9,4.7c-3.7,1-7.2,2.3-10.3,4c-8.4,2.7-15.3,7.2-20.4,13.3c-0.2,0.1-0.4,0.2-0.6,0.3
					c-16.7,1.1-28.5,9.2-35.8,20.3c-2.4,1.3-4.5,2.9-6.5,4.6c-3.8,2.2-7.4,4.6-10.4,7.6c-0.2,0.2-0.4,0.4-0.6,0.6
					c-2.9,2.9-5.2,6.2-7.3,9.7c-1.5,0.5-2.9,0.9-3.9,0.9c-2.5,0-5,1.3-6.9,3.1c-5.4,2.5-10.5,5.9-15.1,10c-2.4,2.2-4.5,4.7-6.3,7.4
					c-6.4,1-12.1,4.1-13.8,7.4c-1,5-36,29-75,55c-73,46-73,47-73,91c0,34,6,50,22,66c22,20,24,20,1821,20h1799l-53-54
					c-56-56-426-439-513-530c-26-28-110-114-185-191c-124-128-295-305-595-616c-99-103-250-258-276-284c-6-5-24-25-40-42l-30-33V110
					h3550v1420l-837.4-10h-839l57,61.6C7371.6,1612.6,7493.6,1737.6,7611.6,1860.6z"/>
			</g>
		</g>
	</g>
</g>
<g id="Layer_2" class="st1">
	<line class="st2" x1="398.5" y1="222.7" x2="353.6" y2="193.1"/>
</g>
</svg>
